<svg xmlns="http://www.w3.org/2000/svg" version="1.1" viewBox="-5.0 -10.0 110.0 135.0">
 <path d="m91.668 12.5v25c0 2.3047-1.8633 4.168-4.168 4.168s-4.168-1.8633-4.168-4.168v-14.941l-26.223 26.223c-0.80859 0.8125-1.875 1.2188-2.9414 1.2188-1.0664 0-2.1328-0.40625-2.9453-1.2227-1.6289-1.6289-1.6289-4.2656 0-5.8906l26.219-26.219h-14.941c-2.3047 0-4.168-1.8633-4.168-4.168s1.8633-4.168 4.168-4.168h25c2.3047 0 4.168 1.8633 4.168 4.168zm-4.168 37.5c-2.3047 0-4.168 1.8633-4.168 4.168v25c0 2.3008-1.8672 4.168-4.168 4.168l-58.332-0.003907c-2.3008 0-4.168-1.8672-4.168-4.168l0.003907-58.332c0-2.3008 1.8672-4.168 4.168-4.168h25c2.3047 0 4.168-1.8633 4.168-4.168 0-2.3047-1.8633-4.168-4.168-4.168l-25.004 0.003906c-6.8906 0-12.5 5.6094-12.5 12.5v58.332c0 6.8945 5.6055 12.5 12.5 12.5h58.332c6.8945 0 12.5-5.6055 12.5-12.5v-25c0.003907-2.3008-1.8594-4.1641-4.1641-4.1641z"/>
</svg>